<?xml version="1.0" encoding="UTF-8"?>
<svg preserveAspectRatio="none" version="1.1" viewBox="0 0 1440 560" xmlns="http://www.w3.org/2000/svg">
<g mask="url(#a)">
<path d="m1464 560h-1464v-250q69.79-2.21 72 67.58 11.95-60.05 72-48.1 74.28-45.72 120 28.56 37.39-82.6 120-45.21 67.61-52.39 120 15.21 48.93-23.07 72 25.85 45.71-26.29 72 19.42 2.85-69.15 72-66.3 49.41-70.59 120-21.17 98.86-21.14 120 77.72 38.59-81.41 120-42.82 68.62-51.38 120 17.24 41.47-30.52 72 10.95 38.57-81.43 120-42.87 50.59-21.42 72 29.17z" fill="rgba(161, 160, 28, 1)"/>
<path d="m1560 560h-1560v-191.77q71.37-0.62 72 70.75 35.28-84.72 120-49.44 45.13-74.87 120-29.75 99.27-20.73 120 78.54 43.28-76.72 120-33.45 23.69-48.31 72-24.62 65.04-54.96 120 10.08 86.83-33.17 120 53.66 3.63-68.37 72-64.74 54.99-65.01 120-10.02 70.49-49.51 120 20.98 18.38-53.62 72-35.24 84.83-35.17 120 49.66 42.31-29.7 72 12.61 39.2-80.8 120-41.6z" fill="rgba(189, 188, 19, 1)"/>
<path d="m1512 560h-1512v-73.72q33.25-38.75 72-5.49 76.6-43.4 120 33.21 11.06-60.94 72-49.87 19.61-52.39 72-32.79 42.32-29.68 72 12.64 41.25-30.75 72 10.5 66.12-5.88 72 60.23 46.88-73.12 120-26.24 20.52-51.47 72-30.95 27.81-44.19 72-16.37 61.83-10.17 72 51.65 65.97-54.03 120 11.95 42.22-77.78 120-35.57 28.22-43.78 72-15.56 60.45-11.55 72 48.9 21.04-98.96 120-77.92 68.03-51.97 120 16.05z" fill="rgba(235, 234, 48, 1)"/>
<path d="m1488 560h-1488v-31.29q24.89-47.11 72-22.22 81.75-38.25 120 43.49 52.67-67.33 120-14.66 51.65-68.35 120-16.7 81.33-38.67 120 42.67 30.53-41.47 72-10.94 11.75-60.25 72-48.5 76.31-43.69 120 32.63 78.89-41.11 120 37.78 53.98-66.02 120-12.05 29.9-42.09 72-12.19 73.91-46.09 120 27.83 37.58-82.42 120-44.84 46.76-73.24 120-26.47z" fill="#fff"/>
</g>
<defs>
<mask id="a">
<rect width="1440" height="560" fill="#fff"/>
</mask>
</defs>
</svg>
